<?xml version="1.0" standalone="no"?>
<!DOCTYPE svg PUBLIC "-//W3C//DTD SVG 20010904//EN"
 "http://www.w3.org/TR/2001/REC-SVG-20010904/DTD/svg10.dtd">
<svg version="1.0" xmlns="http://www.w3.org/2000/svg"
 width="2146.000000pt" height="2146.000000pt" viewBox="0 0 2146.000000 2146.000000"
 preserveAspectRatio="xMidYMid meet">
<metadata>
Created by potrace 1.16, written by Peter Selinger 2001-2019
</metadata>
<g transform="translate(0.000000,2146.000000) scale(0.100000,-0.100000)"
fill="#000000" stroke="none">
<path d="M3971 14333 c347 -636 804 -1203 1304 -1618 150 -125 549 -414 635
-460 38 -20 -16 19 -150 110 -587 397 -1002 802 -1405 1370 -107 150 -264 400
-355 563 -34 61 -65 112 -67 112 -3 0 14 -35 38 -77z"/>
<path d="M21392 11218 l-2 -418 -2576 0 -2576 0 -87 52 c-100 60 -110 65 -96
51 6 -5 80 -52 165 -103 567 -340 1053 -721 1407 -1102 978 -1052 1535 -2276
1692 -3723 43 -393 59 -855 43 -1220 -6 -126 -9 -232 -6 -234 8 -8 101 88 203
209 228 272 434 595 672 1055 538 1042 910 2237 1068 3435 26 197 61 536 61
594 0 32 6 51 20 64 20 18 20 29 17 888 -1 478 -3 681 -5 452z"/>
<path d="M62 10738 c-1 -413 2 -592 13 -735 138 -1730 625 -3269 1492 -4715
616 -1027 1467 -2050 2293 -2754 970 -827 2112 -1467 3391 -1899 228 -77 459
-148 465 -143 2 3 -54 22 -124 43 -563 169 -1185 416 -1722 685 -853 427
-1577 925 -2285 1572 l-59 55 1599 6 c2265 10 10055 9 10055 -1 0 -14 -200
-343 -278 -457 -369 -540 -806 -1007 -1267 -1356 -530 -401 -1138 -692 -1810
-868 -82 -22 -144 -40 -137 -40 22 -2 247 58 399 105 1160 360 2115 1094 2844
2184 185 278 380 638 504 930 75 178 185 509 229 690 159 658 151 1304 -25
1909 -96 331 -287 686 -535 996 -104 130 -427 457 -569 574 -345 286 -790 583
-1310 873 -446 249 -1441 768 -3225 1683 -437 224 -914 469 -1060 545 -358
186 -393 203 -385 191 4 -8 -1241 -11 -4239 -11 l-4246 0 -3 243 c-1 133 -3
-4 -5 -305z"/>
<path d="M10600 70 l-775 -5 770 -1 c424 -1 784 2 800 6 25 6 26 7 5 6 -14 0
-374 -3 -800 -6z"/>
</g>
</svg>
