<?xml version="1.0" standalone="no"?>
<!DOCTYPE svg PUBLIC "-//W3C//DTD SVG 20010904//EN"
 "http://www.w3.org/TR/2001/REC-SVG-20010904/DTD/svg10.dtd">
<svg version="1.0" xmlns="http://www.w3.org/2000/svg"
 width="168.000000pt" height="168.000000pt" viewBox="0 0 168.000000 168.000000"
 preserveAspectRatio="xMidYMid meet">
<metadata>
Created by potrace 1.14, written by Peter Selinger 2001-2017
</metadata>
<g transform="translate(0.000000,168.000000) scale(0.100000,-0.100000)"
fill="#000000" stroke="none">
<path d="M833 1655 c-14 -11 -15 -16 -4 -44 31 -74 -44 -148 -243 -238 -77
-34 -170 -81 -208 -104 -70 -42 -147 -118 -150 -148 0 -9 -2 -23 -3 -31 -1 -8
4 -25 11 -37 10 -17 11 -29 2 -55 -14 -42 -22 -50 -50 -52 -21 -1 -23 -5 -20
-42 2 -37 0 -42 -23 -48 -20 -5 -24 -11 -20 -29 2 -12 7 -35 9 -52 10 -66 28
-118 77 -230 4 -11 42 -101 82 -200 63 -153 78 -182 103 -195 16 -8 39 -25 50
-37 13 -13 33 -21 51 -21 16 1 49 -11 74 -25 42 -25 66 -29 149 -26 37 1 74
-4 128 -20 25 -8 45 -6 79 5 25 9 78 18 116 20 57 3 75 8 96 27 29 28 134 70
147 59 10 -9 -16 28 -34 46 -53 57 -32 92 53 90 54 -1 66 2 60 12 -6 9 97 342
125 405 7 17 34 97 48 145 6 18 4 112 -2 117 -2 3 -12 6 -23 7 -10 1 -27 17
-38 34 -14 22 -28 31 -47 32 -19 0 -28 5 -28 15 0 31 -31 76 -70 100 -22 14
-40 32 -40 41 0 52 -75 133 -125 134 -11 1 -29 15 -40 33 -11 18 -30 37 -43
42 -20 9 -22 16 -19 55 5 59 -10 103 -47 144 -63 67 -144 99 -183 71z"/>
</g>
</svg>
